<svg viewBox="0 0 12 12"  xmlns="http://www.w3.org/2000/svg">
<path d="M0.3125 9.8125C0.3125 10.0199 0.480078 10.1875 0.6875 10.1875H9.3125C9.51992 10.1875 9.6875 10.0199 9.6875 9.8125V4.89062H0.3125V9.8125ZM9.3125 1.65625H7.34375V0.90625C7.34375 0.854687 7.30156 0.8125 7.25 0.8125H6.59375C6.54219 0.8125 6.5 0.854687 6.5 0.90625V1.65625H3.5V0.90625C3.5 0.854687 3.45781 0.8125 3.40625 0.8125H2.75C2.69844 0.8125 2.65625 0.854687 2.65625 0.90625V1.65625H0.6875C0.480078 1.65625 0.3125 1.82383 0.3125 2.03125V4.09375H9.6875V2.03125C9.6875 1.82383 9.51992 1.65625 9.3125 1.65625Z" fill="#9CA0D2"/>
</svg>
